<svg width="65" height="80" viewBox="0 0 65 80" fill="none" xmlns="http://www.w3.org/2000/svg">
<g clip-path="url(#clip0_12_79)">
<path d="M32.5 15C18.9584 15 7.39379 25.3667 2.70837 40C7.39379 54.6333 18.9584 65 32.5 65C46.0417 65 57.6063 54.6333 62.2917 40C57.6063 25.3667 46.0417 15 32.5 15ZM32.5 56.6667C25.025 56.6667 18.9584 49.2 18.9584 40C18.9584 30.8 25.025 23.3333 32.5 23.3333C39.975 23.3333 46.0417 30.8 46.0417 40C46.0417 49.2 39.975 56.6667 32.5 56.6667ZM32.5 30C28.0042 30 24.375 34.4667 24.375 40C24.375 45.5333 28.0042 50 32.5 50C36.9959 50 40.625 45.5333 40.625 40C40.625 34.4667 36.9959 30 32.5 30Z" fill="#FFD600"/>
</g>
<defs>
<clipPath id="clip0_12_79">
<rect width="65" height="80" fill="white"/>
</clipPath>
</defs>
</svg>
