<svg width="65" height="80" viewBox="0 0 65 80" fill="none" xmlns="http://www.w3.org/2000/svg">
<g clip-path="url(#clip0_12_73)">
<path d="M39.2708 47.3334L47.125 53.0001L44.9583 57.3334L35.2083 50.0001V33.3334H39.2708V47.3334ZM59.5833 46.6667C59.5833 61.3667 49.8604 73.3334 37.9166 73.3334C32.4458 73.3334 27.4625 70.8001 23.6437 66.6667H10.8333C7.71871 66.6667 5.41663 63.8334 5.41663 60.0001V30.0001C5.41663 26.2667 7.82704 23.4667 10.8333 23.3334V21.6667C10.8333 13.3667 16.277 6.66675 23.0208 6.66675C29.3583 6.66675 34.5041 12.6334 35.1 20.2667C36.0208 20.1001 36.9687 20.0001 37.9166 20.0001C49.8604 20.0001 59.5833 31.9667 59.5833 46.6667ZM16.25 23.3334H29.7916V20.8667C29.4666 16.6334 26.5416 13.3334 23.0208 13.3334C19.2833 13.3334 16.25 17.0667 16.25 21.6667V23.3334ZM54.1666 46.6667C54.1666 35.6334 46.8812 26.6667 37.9166 26.6667C28.952 26.6667 21.6666 35.6334 21.6666 46.6667C21.6666 57.7001 28.952 66.6667 37.9166 66.6667C46.8812 66.6667 54.1666 57.7001 54.1666 46.6667Z" fill="#FFD600"/>
</g>
<defs>
<clipPath id="clip0_12_73">
<rect width="65" height="80" fill="white"/>
</clipPath>
</defs>
</svg>
