<svg width="27" height="27" viewBox="0 0 27 27" fill="none" xmlns="http://www.w3.org/2000/svg">
<path d="M9 3.375C5.89388 3.375 3.375 5.89388 3.375 9V18C3.375 21.1061 5.89388 23.625 9 23.625H18C21.1061 23.625 23.625 21.1061 23.625 18V9C23.625 5.89388 21.1061 3.375 18 3.375H9ZM20.25 5.625C20.871 5.625 21.375 6.129 21.375 6.75C21.375 7.371 20.871 7.875 20.25 7.875C19.629 7.875 19.125 7.371 19.125 6.75C19.125 6.129 19.629 5.625 20.25 5.625ZM13.5 7.875C16.6061 7.875 19.125 10.3939 19.125 13.5C19.125 16.6061 16.6061 19.125 13.5 19.125C10.3939 19.125 7.875 16.6061 7.875 13.5C7.875 10.3939 10.3939 7.875 13.5 7.875ZM13.5 10.125C12.6049 10.125 11.7464 10.4806 11.1135 11.1135C10.4806 11.7464 10.125 12.6049 10.125 13.5C10.125 14.3951 10.4806 15.2536 11.1135 15.8865C11.7464 16.5194 12.6049 16.875 13.5 16.875C14.3951 16.875 15.2536 16.5194 15.8865 15.8865C16.5194 15.2536 16.875 14.3951 16.875 13.5C16.875 12.6049 16.5194 11.7464 15.8865 11.1135C15.2536 10.4806 14.3951 10.125 13.5 10.125Z" fill="white"/>
</svg>
