<svg width="26" height="22" viewBox="0 0 26 22" fill="none" xmlns="http://www.w3.org/2000/svg">
<path d="M25.9613 0C24.9488 0.63658 22.9173 1.50414 21.7231 1.75437C21.6881 1.764 21.6595 1.77637 21.6258 1.786C20.5704 0.683326 19.1244 0 17.5239 0C14.2982 0 11.6826 2.77043 11.6826 6.18706C11.6826 6.36717 11.6683 6.69852 11.6826 6.87451C7.33017 6.87451 4.01751 4.46018 1.64205 1.3749C1.38374 2.06235 1.27081 3.14852 1.27081 4.1687C1.27081 6.09494 2.69219 7.9868 4.90539 9.1596C4.4978 9.27096 4.04866 9.35071 3.58136 9.35071C2.82719 9.35071 2.02888 9.14035 1.29807 8.50239C1.29807 8.52576 1.29807 8.54776 1.29807 8.57251C1.29807 11.2646 3.99544 13.0973 6.39427 13.6074C5.90749 13.9113 4.92616 13.9415 4.44717 13.9415C4.10967 13.9415 2.91545 13.7779 2.59613 13.7146C3.26334 15.9214 5.66995 17.1615 7.96363 17.2055C6.1697 18.6959 4.92486 19.2486 1.25133 19.2486H0C2.32094 20.8243 5.27663 21.9998 8.23882 21.9998C17.8834 21.9998 23.3652 14.2137 23.3652 6.87451C23.3652 6.75627 23.3626 6.50878 23.3587 6.25993C23.3587 6.23518 23.3652 6.21181 23.3652 6.18706C23.3652 6.14993 23.3548 6.11419 23.3548 6.07707C23.3509 5.89008 23.347 5.71547 23.3431 5.62472C24.3686 4.84103 25.2578 3.86347 25.9613 2.7498C25.0202 3.19252 24.0103 3.4895 22.9498 3.62424C24.0324 2.93679 25.5706 1.29791 25.9613 0Z" fill="white"/>
</svg>
